<svg width="18" height="18" viewBox="0 0 18 18" fill="none" xmlns="http://www.w3.org/2000/svg">
<path d="M9 18C4.02944 18 -6.10673e-07 13.9706 -3.93402e-07 9C-1.76132e-07 4.02944 4.02944 -6.10673e-07 9 -3.93402e-07C13.9706 -1.76132e-07 18 4.02944 18 9C18 13.9706 13.9706 18 9 18Z" fill="#0052B5"/>
<path d="M17.4321 5.85C16.1553 2.433 12.8611 -1.99804e-07 8.99877 -3.68634e-07C5.1364 -5.37463e-07 1.84228 2.433 0.56542 5.85L17.4321 5.85Z" fill="white"/>
<path d="M0.567872 12.15C1.84473 15.567 5.13885 18 9.00123 18C12.8636 18 16.1577 15.567 17.4346 12.15L0.567872 12.15Z" fill="#D90026"/>
</svg>
